<svg width="96" height="97" xmlns="http://www.w3.org/2000/svg" xmlns:xlink="http://www.w3.org/1999/xlink" xml:space="preserve" overflow="hidden"><g transform="translate(-516 -196)"><g><g><g><g><path d="M526 208 526 280 600 280 600 208ZM594 241 566 241 566 214 594 214ZM560 214 560 241 532 241 532 214ZM532 247 560 247 560 274 532 274ZM566 274 566 247 594 247 594 274Z" stroke="#FFC000" stroke-width="1" stroke-linecap="butt" stroke-linejoin="miter" stroke-miterlimit="4" stroke-opacity="1" fill="#FFE699" fill-rule="nonzero" fill-opacity="1"/><path d="M555 225 548 225 548 218 544 218 544 225 537 225 537 229 544 229 544 236 548 236 548 229 555 229 555 225Z" stroke="#FFC000" stroke-width="1" stroke-linecap="butt" stroke-linejoin="miter" stroke-miterlimit="4" stroke-opacity="1" fill="#FFE699" fill-rule="nonzero" fill-opacity="1"/><path d="M553.78 255.05 550.95 252.22 546 257.17 541.05 252.22 538.22 255.05 543.17 260 538.22 264.95 541.05 267.78 546 262.83 550.95 267.78 553.78 264.95 548.83 260 553.78 255.05Z" stroke="#FFC000" stroke-width="1" stroke-linecap="butt" stroke-linejoin="miter" stroke-miterlimit="4" stroke-opacity="1" fill="#FFE699" fill-rule="nonzero" fill-opacity="1"/><path d="M571 229 571 225 589 225 589 229Z" stroke="#FFC000" stroke-width="1" stroke-linecap="butt" stroke-linejoin="miter" stroke-miterlimit="4" stroke-opacity="1" fill="#FFE699" fill-rule="nonzero" fill-opacity="1"/><path d="M571 263 571 259 589 259 589 263Z" stroke="#FFC000" stroke-width="1" stroke-linecap="butt" stroke-linejoin="miter" stroke-miterlimit="4" stroke-opacity="1" fill="#FFE699" fill-rule="nonzero" fill-opacity="1"/><path d="M582 255C582 256.105 581.105 257 580 257 578.895 257 578 256.105 578 255 578 253.895 578.895 253 580 253 581.105 253 582 253.895 582 255Z" stroke="#FFC000" stroke-width="1" stroke-linecap="butt" stroke-linejoin="miter" stroke-miterlimit="4" stroke-opacity="1" fill="#FFE699" fill-rule="nonzero" fill-opacity="1"/><path d="M582 267C582 268.105 581.105 269 580 269 578.895 269 578 268.105 578 267 578 265.895 578.895 265 580 265 581.105 265 582 265.895 582 267Z" stroke="#FFC000" stroke-width="1" stroke-linecap="butt" stroke-linejoin="miter" stroke-miterlimit="4" stroke-opacity="1" fill="#FFE699" fill-rule="nonzero" fill-opacity="1"/></g></g></g></g></g></svg>