<svg width="97" height="97" xmlns="http://www.w3.org/2000/svg" xmlns:xlink="http://www.w3.org/1999/xlink" xml:space="preserve" overflow="hidden"><g transform="translate(-305 -164)"><g><g><g><g><path d="M351.61 233.14C351.61 235.647 349.577 237.68 347.07 237.68 344.563 237.68 342.53 235.647 342.53 233.14 342.53 230.633 344.563 228.6 347.07 228.6 349.577 228.6 351.61 230.633 351.61 233.14Z" stroke="#FFC000" stroke-width="1" stroke-linecap="butt" stroke-linejoin="miter" stroke-miterlimit="4" stroke-opacity="1" fill="#FFE699" fill-rule="nonzero" fill-opacity="1"/><path d="M356 248 356 243.46C355.985 242.753 355.655 242.089 355.1 241.65 353.795 240.644 352.303 239.91 350.71 239.49 349.508 239.121 348.258 238.932 347 238.93 345.744 238.949 344.496 239.138 343.29 239.49 341.715 239.956 340.23 240.687 338.9 241.65 338.345 242.089 338.015 242.753 338 243.46L338 248Z" stroke="#FFC000" stroke-width="1" stroke-linecap="butt" stroke-linejoin="miter" stroke-miterlimit="4" stroke-opacity="1" fill="#FFE699" fill-rule="nonzero" fill-opacity="1"/><path d="M371.47 233.14C371.47 235.647 369.437 237.68 366.93 237.68 364.423 237.68 362.39 235.647 362.39 233.14 362.39 230.633 364.423 228.6 366.93 228.6 369.437 228.6 371.47 230.633 371.47 233.14Z" stroke="#FFC000" stroke-width="1" stroke-linecap="butt" stroke-linejoin="miter" stroke-miterlimit="4" stroke-opacity="1" fill="#FFE699" fill-rule="nonzero" fill-opacity="1"/><path d="M376 248 376 243.46C375.985 242.753 375.655 242.089 375.1 241.65 373.795 240.644 372.303 239.91 370.71 239.49 369.508 239.121 368.258 238.932 367 238.93 365.744 238.949 364.496 239.138 363.29 239.49 361.715 239.956 360.23 240.687 358.9 241.65 358.345 242.089 358.015 242.753 358 243.46L358 248Z" stroke="#FFC000" stroke-width="1" stroke-linecap="butt" stroke-linejoin="miter" stroke-miterlimit="4" stroke-opacity="1" fill="#FFE699" fill-rule="nonzero" fill-opacity="1"/><path d="M391.47 233.14C391.47 235.647 389.437 237.68 386.93 237.68 384.423 237.68 382.39 235.647 382.39 233.14 382.39 230.633 384.423 228.6 386.93 228.6 389.437 228.6 391.47 230.633 391.47 233.14Z" stroke="#FFC000" stroke-width="1" stroke-linecap="butt" stroke-linejoin="miter" stroke-miterlimit="4" stroke-opacity="1" fill="#FFE699" fill-rule="nonzero" fill-opacity="1"/><path d="M396 248 396 243.46C395.985 242.753 395.655 242.089 395.1 241.65 393.795 240.644 392.303 239.91 390.71 239.49 389.508 239.121 388.258 238.932 387 238.93 385.744 238.949 384.496 239.138 383.29 239.49 381.715 239.956 380.23 240.687 378.9 241.65 378.345 242.089 378.015 242.753 378 243.46L378 248Z" stroke="#FFC000" stroke-width="1" stroke-linecap="butt" stroke-linejoin="miter" stroke-miterlimit="4" stroke-opacity="1" fill="#FFE699" fill-rule="nonzero" fill-opacity="1"/><path d="M333.42 191.16C333.42 194.441 330.761 197.1 327.48 197.1 324.199 197.1 321.54 194.441 321.54 191.16 321.54 187.879 324.199 185.22 327.48 185.22 330.761 185.22 333.42 187.879 333.42 191.16Z" stroke="#FFC000" stroke-width="1" stroke-linecap="butt" stroke-linejoin="miter" stroke-miterlimit="4" stroke-opacity="1" fill="#FFE699" fill-rule="nonzero" fill-opacity="1"/><path d="M362.51 188.87C361.922 188.29 360.978 188.29 360.39 188.87L347.47 201.79C346.438 201.499 345.328 201.781 344.56 202.53 344.35 202.74 340.62 208.84 340.62 208.84L339.5 204.07C339.352 203.455 339.045 202.889 338.61 202.43 336.767 200.94 334.646 199.832 332.37 199.17 330.761 198.826 329.125 198.628 327.48 198.58 325.821 198.606 324.173 198.854 322.58 199.32 320.284 199.922 318.154 201.037 316.35 202.58 315.911 203.037 315.604 203.603 315.46 204.22 315.46 204.22 311.15 222.32 311.15 222.62 311.15 224.277 312.493 225.62 314.15 225.62 315.478 225.586 316.625 224.683 316.97 223.4L320.09 210.49 320.09 252 326 252 326 225.29 329 225.29 329 252 334.9 252 334.9 210.3 336 215C336.076 215.325 336.292 215.599 336.59 215.75 337.74 216.633 339.141 217.126 340.59 217.16 341.534 217.292 342.469 216.867 342.99 216.07L349.09 206.07C349.48 205.455 349.626 204.717 349.5 204L362.5 191C363.089 190.414 363.093 189.462 362.51 188.87Z" stroke="#FFC000" stroke-width="1" stroke-linecap="butt" stroke-linejoin="miter" stroke-miterlimit="4" stroke-opacity="1" fill="#FFE699" fill-rule="nonzero" fill-opacity="1"/><path d="M383 175 334 175C331.791 175 330 176.791 330 179L330 182.6C331.529 183.016 332.913 183.847 334 185L334 179 383 179 383 212 348.87 212 346.43 216 383 216C385.209 216 387 214.209 387 212L387 179C387 176.791 385.209 175 383 175Z" stroke="#FFC000" stroke-width="1" stroke-linecap="butt" stroke-linejoin="miter" stroke-miterlimit="4" stroke-opacity="1" fill="#FFE699" fill-rule="nonzero" fill-opacity="1"/></g></g></g></g></g></svg>