<svg width="96" height="98" xmlns="http://www.w3.org/2000/svg" xmlns:xlink="http://www.w3.org/1999/xlink" xml:space="preserve" overflow="hidden"><g transform="translate(-496 -466)"><g><g><g><g><path d="M511 494.95C512.986 494.947 514.782 493.77 515.576 491.95L520 491.95C521.105 491.95 522 492.845 522 493.95L522 507.086C523.02 506.71 524.084 506.466 525.166 506.361 525.36 505.47 525.64 504.599 526 503.761L526 493.95C525.996 490.638 523.312 487.954 520 487.95L515.576 487.95C514.471 485.419 511.524 484.263 508.993 485.367 506.462 486.472 505.306 489.419 506.411 491.95 507.207 493.774 509.009 494.953 511 494.95Z" stroke="#FFC000" stroke-width="1" stroke-linecap="butt" stroke-linejoin="miter" stroke-miterlimit="4" stroke-opacity="1" fill="#FFE699" fill-rule="nonzero" fill-opacity="1"/><path d="M514.89 524.229C514.845 524.136 514.809 524.042 514.767 523.95L507 523.95C505.895 523.95 505 523.055 505 521.95L505 516.526C507.531 515.421 508.687 512.474 507.583 509.943 506.478 507.413 503.531 506.256 501 507.361 498.469 508.465 497.313 511.413 498.417 513.943 498.922 515.099 499.844 516.022 501 516.526L501 521.95C501.004 525.262 503.688 527.946 507 527.95L517.626 527.95C516.49 526.891 515.563 525.629 514.89 524.229Z" stroke="#FFC000" stroke-width="1" stroke-linecap="butt" stroke-linejoin="miter" stroke-miterlimit="4" stroke-opacity="1" fill="#FFE699" fill-rule="nonzero" fill-opacity="1"/><path d="M540 482.526 540 494.982C541.359 495.032 542.706 495.269 544 495.688L544 482.526C546.531 481.421 547.687 478.474 546.583 475.943 545.478 473.413 542.531 472.256 540 473.361 537.469 474.465 536.313 477.413 537.417 479.943 537.922 481.099 538.844 482.022 540 482.526Z" stroke="#FFC000" stroke-width="1" stroke-linecap="butt" stroke-linejoin="miter" stroke-miterlimit="4" stroke-opacity="1" fill="#FFE699" fill-rule="nonzero" fill-opacity="1"/><path d="M560.26 502.9C560.516 503.08 560.76 503.274 561 503.47L561 499.95C561 498.845 561.895 497.95 563 497.95L569 497.95C572.312 497.946 574.996 495.262 575 491.95L575 490.526C577.531 489.421 578.687 486.474 577.583 483.943 576.478 481.413 573.531 480.256 571 481.361 568.469 482.465 567.313 485.413 568.417 487.943 568.922 489.099 569.844 490.022 571 490.526L571 491.95C571 493.055 570.105 493.95 569 493.95L563 493.95C559.688 493.953 557.003 496.638 557 499.95L557 501.266C558.16 501.651 559.258 502.201 560.26 502.9Z" stroke="#FFC000" stroke-width="1" stroke-linecap="butt" stroke-linejoin="miter" stroke-miterlimit="4" stroke-opacity="1" fill="#FFE699" fill-rule="nonzero" fill-opacity="1"/><path d="M530 531.408 530 533.95C530 535.055 529.105 535.95 528 535.95L522 535.95C518.688 535.953 516.003 538.638 516 541.95L516 543.374C513.469 544.479 512.313 547.426 513.417 549.957 514.522 552.487 517.469 553.644 520 552.539 522.531 551.435 523.687 548.487 522.583 545.957 522.078 544.801 521.156 543.878 520 543.374L520 541.95C520 540.845 520.895 539.95 522 539.95L528 539.95C531.312 539.946 533.996 537.262 534 533.95L534 531.408Z" stroke="#FFC000" stroke-width="1" stroke-linecap="butt" stroke-linejoin="miter" stroke-miterlimit="4" stroke-opacity="1" fill="#FFE699" fill-rule="nonzero" fill-opacity="1"/><path d="M585 509.95C583.014 509.953 581.218 511.13 580.424 512.95L570.511 512.95C571.728 514.053 572.675 515.422 573.276 516.95L580.424 516.95C581.529 519.481 584.476 520.637 587.007 519.533 589.537 518.428 590.694 515.481 589.589 512.95 588.793 511.126 586.99 509.947 585 509.95Z" stroke="#FFC000" stroke-width="1" stroke-linecap="butt" stroke-linejoin="miter" stroke-miterlimit="4" stroke-opacity="1" fill="#FFE699" fill-rule="nonzero" fill-opacity="1"/><path d="M576 536.95C574.014 536.953 572.218 538.13 571.424 539.95L567 539.95C565.895 539.95 565 539.055 565 537.95L565 531.257C564.429 531.354 563.851 531.404 563.271 531.408L561 531.408 561 537.95C561.004 541.262 563.688 543.946 567 543.95L571.424 543.95C572.529 546.481 575.476 547.637 578.007 546.533 580.537 545.428 581.694 542.481 580.589 539.95 579.793 538.126 577.99 536.947 576 536.95Z" stroke="#FFC000" stroke-width="1" stroke-linecap="butt" stroke-linejoin="miter" stroke-miterlimit="4" stroke-opacity="1" fill="#FFE699" fill-rule="nonzero" fill-opacity="1"/><path d="M549 546.374 549 531.408 545 531.408 545 546.374C542.469 547.479 541.313 550.426 542.417 552.957 543.522 555.487 546.469 556.644 549 555.539 551.531 554.435 552.687 551.487 551.583 548.957 551.078 547.801 550.156 546.878 549 546.374Z" stroke="#FFC000" stroke-width="1" stroke-linecap="butt" stroke-linejoin="miter" stroke-miterlimit="4" stroke-opacity="1" fill="#FFE699" fill-rule="nonzero" fill-opacity="1"/><path d="M563.271 513.146C563.056 513.141 562.841 513.151 562.627 513.178L562.627 513.146C562.622 510.038 561.096 507.13 558.543 505.358 555.972 503.571 552.699 503.124 549.743 504.158 547.261 499.456 541.908 497.033 536.737 498.269 531.575 499.462 527.9 504.033 527.844 509.33L527.844 509.43C524.315 508.87 520.763 510.29 518.594 513.13 516.447 515.95 516.061 519.735 517.594 522.93 519.149 526.141 522.346 528.235 525.911 528.377L529 528.409 563.271 528.409C567.486 528.457 570.942 525.08 570.99 520.865 571.038 516.65 567.661 513.194 563.446 513.146 563.388 513.145 563.329 513.145 563.271 513.146Z" stroke="#FFC000" stroke-width="1" stroke-linecap="butt" stroke-linejoin="miter" stroke-miterlimit="4" stroke-opacity="1" fill="#FFE699" fill-rule="nonzero" fill-opacity="1"/></g></g></g></g></g></svg>