<svg width="96" height="96" xmlns="http://www.w3.org/2000/svg" xmlns:xlink="http://www.w3.org/1999/xlink" xml:space="preserve" overflow="hidden"><g transform="translate(-592 -312)"><g><path d="M668 372 612 372 612 338 668 338ZM674 336C674 333.791 672.209 332 670 332L610 332C607.791 332 606 333.791 606 336L606 378 674 378Z" stroke="#FFC000" stroke-width="1" stroke-linecap="butt" stroke-linejoin="miter" stroke-miterlimit="4" stroke-opacity="1" fill="#FFE699" fill-rule="nonzero" fill-opacity="1"/><path d="M646 382 646 383C646.034 383.518 645.642 383.966 645.124 384 645.083 384.003 645.041 384.003 645 384L635 384C634.482 384.034 634.034 383.642 634 383.124 633.997 383.083 633.997 383.041 634 383L634 382 594 382 594 384C594 386.209 595.791 388 598 388L682 388C684.209 388 686 386.209 686 384L686 382Z" stroke="#FFC000" stroke-width="1" stroke-linecap="butt" stroke-linejoin="miter" stroke-miterlimit="4" stroke-opacity="1" fill="#FFE699" fill-rule="nonzero" fill-opacity="1"/><path d="M640 341C632.268 341 626 347.268 626 355 626 362.732 632.268 369 640 369 647.732 369 654 362.732 654 355 654 347.268 647.732 341 640 341ZM641 356 645.59 356C645.067 359.447 643.459 362.638 641 365.11ZM641 354 641 344.88C643.462 347.354 645.07 350.549 645.59 354ZM639 354 634.56 354C635.057 350.608 636.611 347.459 639 345ZM639 356 639 365C636.615 362.538 635.062 359.391 634.56 356ZM632.55 354 628.27 354C628.714 348.762 632.58 344.455 637.74 343.45 634.889 346.295 633.064 350.005 632.55 354ZM632.55 356C633.064 360.001 634.897 363.717 637.76 366.56 632.593 365.556 628.719 361.245 628.27 356ZM647.6 356 651.73 356C651.292 361.179 647.507 365.456 642.42 366.52 645.269 363.688 647.092 359.985 647.6 356ZM647.6 354C647.088 350.025 645.278 346.33 642.45 343.49 647.522 344.565 651.292 348.834 651.73 354Z" stroke="#FFC000" stroke-width="1" stroke-linecap="butt" stroke-linejoin="miter" stroke-miterlimit="4" stroke-opacity="1" fill="#FFE699" fill-rule="nonzero" fill-opacity="1"/></g></g></svg>